<?xml version="1.0" encoding="UTF-8"?>
<svg xmlns="http://www.w3.org/2000/svg" xmlns:xlink="http://www.w3.org/1999/xlink" width="450pt" height="449.999984pt" viewBox="0 0 450 449.999984" version="1.2">
<defs>
<clipPath id="clip1">
  <path d="M 142.316406 215 L 322.316406 215 L 322.316406 290.960938 L 142.316406 290.960938 Z M 142.316406 215 "/>
</clipPath>
<clipPath id="clip2">
  <path d="M 198 158.960938 L 267 158.960938 L 267 236 L 198 236 Z M 198 158.960938 "/>
</clipPath>
</defs>
<g id="surface1">
<g clip-path="url(#clip1)" clip-rule="nonzero">
<path style=" stroke:none;fill-rule:nonzero;fill:rgb(1.179504%,38.42926%,17.248535%);fill-opacity:1;" d="M 318.867188 241.53125 L 296.667969 219.34375 C 293.855469 216.535156 290.203125 215.132812 286.269531 215.132812 L 260.417969 215.132812 C 258.730469 215.132812 257.605469 216.257812 257.605469 217.941406 C 257.605469 219.625 258.730469 220.75 260.417969 220.75 L 286.269531 220.75 C 288.515625 220.75 291.046875 221.59375 292.730469 223.277344 L 309.875 240.410156 L 257.605469 240.410156 C 255.921875 240.410156 254.796875 241.53125 254.796875 243.21875 C 254.796875 255.574219 244.679688 265.6875 232.316406 265.6875 C 219.953125 265.6875 209.835938 255.574219 209.835938 243.21875 C 209.835938 241.53125 208.714844 240.410156 207.027344 240.410156 L 154.761719 240.410156 L 171.902344 223.277344 C 173.589844 221.59375 176.117188 220.75 178.363281 220.75 L 204.21875 220.75 C 205.902344 220.75 207.027344 219.625 207.027344 217.941406 C 207.027344 216.257812 205.902344 215.132812 204.21875 215.132812 L 178.644531 215.132812 C 174.992188 215.132812 171.058594 216.535156 168.25 219.34375 L 145.488281 241.8125 C 143.519531 242.9375 142.398438 244.902344 142.398438 247.429688 L 142.398438 281.132812 C 142.398438 285.625 146.050781 290.960938 150.828125 290.960938 L 313.808594 290.960938 C 318.585938 290.960938 322.238281 285.625 322.238281 281.132812 L 322.238281 247.429688 C 322.238281 244.902344 320.832031 242.65625 318.863281 241.53125 Z M 313.808594 285.34375 L 150.828125 285.34375 C 149.703125 285.34375 148.015625 283.097656 148.015625 281.132812 L 148.015625 257.261719 L 195.785156 257.261719 C 197.472656 257.261719 198.597656 256.136719 198.597656 254.453125 C 198.597656 252.765625 197.472656 251.644531 195.785156 251.644531 L 148.015625 251.644531 L 148.015625 247.429688 C 148.015625 247.148438 148.015625 246.027344 150.828125 246.027344 L 204.777344 246.027344 C 206.183594 260.070312 218.265625 271.304688 232.597656 271.304688 C 247.210938 271.304688 259.011719 260.351562 260.417969 246.027344 L 313.808594 246.027344 C 314.648438 246.027344 314.929688 246.027344 315.492188 246.308594 C 315.773438 246.589844 316.054688 246.589844 316.335938 246.867188 C 316.617188 247.148438 316.617188 247.429688 316.617188 247.710938 L 316.617188 251.644531 L 268.847656 251.644531 C 267.160156 251.644531 266.039062 252.765625 266.039062 254.453125 C 266.039062 256.136719 267.160156 257.261719 268.847656 257.261719 L 316.617188 257.261719 L 316.617188 281.132812 C 316.617188 283.097656 314.929688 285.34375 313.808594 285.34375 Z M 313.808594 285.34375 "/>
</g>
<g clip-path="url(#clip2)" clip-rule="nonzero">
<path style=" stroke:none;fill-rule:nonzero;fill:rgb(1.179504%,38.42926%,17.248535%);fill-opacity:1;" d="M 246.367188 158.960938 L 218.265625 158.960938 C 216.582031 158.960938 215.457031 160.085938 215.457031 161.769531 L 215.457031 192.664062 L 201.40625 192.664062 C 200.28125 192.664062 199.441406 193.226562 198.878906 194.351562 C 198.316406 195.472656 198.597656 196.597656 199.160156 197.4375 L 230.070312 234.230469 C 230.632812 234.792969 231.472656 235.355469 232.316406 235.355469 C 233.160156 235.355469 234.003906 235.074219 234.566406 234.230469 L 265.476562 197.4375 C 266.316406 196.597656 266.316406 195.472656 265.757812 194.351562 C 265.195312 193.226562 264.351562 192.664062 263.226562 192.664062 L 249.175781 192.664062 L 249.175781 161.769531 C 249.175781 160.085938 248.054688 158.960938 246.367188 158.960938 Z M 257.046875 198.28125 L 232.316406 227.769531 L 207.308594 198.28125 L 218.265625 198.28125 C 219.953125 198.28125 221.078125 197.160156 221.078125 195.472656 L 221.078125 164.578125 L 243.558594 164.578125 L 243.558594 195.472656 C 243.558594 197.160156 244.679688 198.28125 246.367188 198.28125 Z M 257.046875 198.28125 "/>
</g>
<path style="fill:none;stroke-width:1.533333;stroke-linecap:butt;stroke-linejoin:miter;stroke:rgb(64.309692%,34.118652%,15.289307%);stroke-opacity:1;stroke-miterlimit:4;" d="M 157.83993 -7.596999 L 152.397221 34.001963 L 162.527431 34.001963 L 164.714931 17.153003 L 178.043057 17.153003 L 179.214932 8.403002 L 165.886806 8.403002 L 166.850348 1.153002 L 182.850349 1.153002 L 183.970141 -7.596999 Z M 199.3816 10.965502 L 200.709725 1.153002 L 205.345142 1.153002 C 207.324309 1.153002 209.407643 1.788418 209.032643 5.731127 L 208.980559 6.319669 C 208.600351 10.158211 205.996184 10.965502 204.017017 10.965502 Z M 198.261808 19.705086 L 201.089934 19.705086 L 204.657642 34.001963 L 215.595143 34.001963 L 211.168059 18.324878 C 215.058685 16.720711 218.26181 13.361336 219.162852 6.590502 L 219.329518 5.418627 C 220.865977 -6.102207 213.079518 -7.596999 206.048267 -7.596999 L 191.699308 -7.596999 L 186.261807 34.001963 L 196.386808 34.001963 Z M 229.563894 -7.596999 L 224.121185 34.001963 L 250.256604 34.001963 L 251.371188 25.251962 L 235.371186 25.251962 L 236.438895 17.153003 L 249.772229 17.153003 L 250.944104 8.403002 L 237.61077 8.403002 L 238.574312 1.153002 L 254.574313 1.153002 L 255.694105 -7.596999 Z M 264.496189 -7.596999 L 259.05348 34.001963 L 285.18369 34.001963 L 286.303482 25.251962 L 270.303481 25.251962 L 271.371189 17.153003 L 284.704523 17.153003 L 285.876399 8.403002 L 272.543064 8.403002 L 273.506606 1.153002 L 289.506607 1.153002 L 290.626399 -7.596999 Z M 342.787861 12.137378 C 344.69932 -2.258457 340.220153 -7.596999 327.152443 -7.596999 L 314.089942 -7.596999 L 308.647234 34.001963 L 322.25661 34.001963 C 335.313902 34.001963 340.600361 28.559254 342.51182 14.158211 Z M 319.897235 25.251962 L 323.10036 1.153002 L 325.496193 1.153002 C 332.438902 1.153002 333.454527 4.93946 332.490986 12.137378 L 332.230569 14.158211 C 331.267027 21.356128 329.767027 25.251962 322.839943 25.251962 Z M 368.86078 -8.341791 C 357.662862 -8.341791 352.220154 -2.15429 350.303487 12.241544 L 350.032654 14.262378 C 348.115987 28.66342 353.131612 34.741546 364.32953 34.741546 C 375.527447 34.741546 380.918073 28.559254 382.829531 14.158211 L 383.105573 12.137378 C 385.017031 -2.258457 380.058698 -8.341791 368.86078 -8.341791 Z M 364.589946 26.00717 C 359.798279 26.00717 359.365988 21.528003 360.329529 14.262378 L 360.589946 12.241544 C 361.553488 4.991544 363.157655 0.40821 367.949322 0.40821 L 368.532655 0.40821 C 373.339947 0.40821 373.76703 4.887377 372.803489 12.137378 L 372.543072 14.158211 C 371.57953 21.408212 369.980572 26.00717 365.17328 26.00717 Z M 416.480575 34.001963 L 429.381618 34.001963 L 441.438911 -7.596999 L 430.87641 -7.596999 L 424.058701 20.028003 L 422.990993 -7.596999 L 410.501408 -7.596999 L 402.183699 20.028003 L 402.610783 -7.596999 L 392.05349 -7.596999 L 393.225365 34.001963 L 406.074325 34.001963 L 415.204534 4.028002 Z M 480.214955 -7.596999 L 470.60558 -7.596999 L 468.642038 7.335294 L 467.886829 15.330086 L 459.407662 -7.596999 L 448.746203 -7.596999 L 443.303494 34.001963 L 452.897245 34.001963 L 454.824328 19.064461 L 455.621203 11.069669 L 464.110787 34.001963 L 474.772247 34.001963 Z M 508.902458 34.001963 L 510.022249 25.251962 L 495.350373 25.251962 L 499.67329 -7.596999 L 489.543081 -7.596999 L 484.100372 34.001963 Z M 536.845168 -8.341791 C 525.647251 -8.341791 520.204542 -2.15429 518.293083 12.241544 L 518.017042 14.262378 C 516.105583 28.66342 521.116 34.741546 532.313918 34.741546 C 543.511835 34.741546 548.902461 28.559254 550.813919 14.158211 L 551.089961 12.137378 C 553.001419 -2.258457 548.043086 -8.341791 536.845168 -8.341791 Z M 532.574334 26.00717 C 527.782667 26.00717 527.350376 21.528003 528.313917 14.262378 L 528.574334 12.241544 C 529.537876 4.991544 531.142043 0.40821 535.93371 0.40821 L 536.517043 0.40821 C 541.324335 0.40821 541.751418 4.887377 540.787877 12.137378 L 540.52746 14.158211 C 539.563918 21.408212 537.96496 26.00717 533.157668 26.00717 Z M 569.803504 -7.596999 L 554.438919 34.001963 L 565.324337 34.001963 L 568.043087 25.574879 L 576.678505 25.574879 L 577.313921 34.001963 L 588.147255 34.001963 L 583.668088 -7.596999 Z M 575.194129 4.132169 L 576.089963 16.824878 L 570.975379 16.824878 Z M 629.428509 12.137378 C 631.339967 -2.258457 626.866008 -7.596999 613.793091 -7.596999 L 600.73059 -7.596999 L 595.287881 34.001963 L 608.897257 34.001963 C 621.95455 34.001963 627.241008 28.559254 629.152467 14.158211 Z M 606.537882 25.251962 L 609.741007 1.153002 L 612.136841 1.153002 C 619.07955 1.153002 620.095175 4.93946 619.131633 12.137378 L 618.871216 14.158211 C 617.907674 21.356128 616.407674 25.251962 609.48059 25.251962 Z M 606.537882 25.251962 " transform="matrix(0.75,0,0,0.75,-61.426813,315.400874)"/>
</g>
</svg>
